<mxfile host="app.diagrams.net" modified="2024-01-02T19:01:15.301Z" agent="Mozilla/5.0 (Windows NT 10.0; Win64; x64) AppleWebKit/537.36 (KHTML, like Gecko) Chrome/120.0.0.0 Safari/537.36 Edg/120.0.0.0" etag="V7F5a56wuwfggBF4TqYM" version="22.1.16" type="device">
  <diagram name="Page-1" id="izGDIXWdiDGOQhlA-iLo">
    <mxGraphModel dx="1230" dy="817" grid="1" gridSize="10" guides="1" tooltips="1" connect="1" arrows="1" fold="1" page="1" pageScale="1" pageWidth="827" pageHeight="1169" math="0" shadow="0">
      <root>
        <mxCell id="0" />
        <mxCell id="1" parent="0" />
        <mxCell id="4VplBbc3Qp97Eee8QdOj-6" style="edgeStyle=orthogonalEdgeStyle;rounded=0;orthogonalLoop=1;jettySize=auto;html=1;exitX=0.5;exitY=1;exitDx=0;exitDy=0;entryX=0.5;entryY=0;entryDx=0;entryDy=0;" parent="1" source="4VplBbc3Qp97Eee8QdOj-1" target="4VplBbc3Qp97Eee8QdOj-3" edge="1">
          <mxGeometry relative="1" as="geometry" />
        </mxCell>
        <mxCell id="4VplBbc3Qp97Eee8QdOj-1" value="Bắt đầu" style="ellipse;whiteSpace=wrap;html=1;" parent="1" vertex="1">
          <mxGeometry x="340" y="70" width="120" height="80" as="geometry" />
        </mxCell>
        <mxCell id="4VplBbc3Qp97Eee8QdOj-11" style="edgeStyle=orthogonalEdgeStyle;rounded=0;orthogonalLoop=1;jettySize=auto;html=1;exitX=1;exitY=0.5;exitDx=0;exitDy=0;entryX=0;entryY=0.5;entryDx=0;entryDy=0;" parent="1" source="4VplBbc3Qp97Eee8QdOj-3" target="4VplBbc3Qp97Eee8QdOj-10" edge="1">
          <mxGeometry relative="1" as="geometry" />
        </mxCell>
        <mxCell id="4VplBbc3Qp97Eee8QdOj-15" style="edgeStyle=orthogonalEdgeStyle;rounded=0;orthogonalLoop=1;jettySize=auto;html=1;exitX=0.5;exitY=1;exitDx=0;exitDy=0;entryX=0.5;entryY=0;entryDx=0;entryDy=0;" parent="1" source="4VplBbc3Qp97Eee8QdOj-3" target="4VplBbc3Qp97Eee8QdOj-14" edge="1">
          <mxGeometry relative="1" as="geometry" />
        </mxCell>
        <mxCell id="4VplBbc3Qp97Eee8QdOj-3" value="Tìm thấy vân tay" style="rhombus;whiteSpace=wrap;html=1;" parent="1" vertex="1">
          <mxGeometry x="330" y="180" width="140" height="80" as="geometry" />
        </mxCell>
        <mxCell id="nUrgJPAWz0GhqdLrq_Ft-11" style="edgeStyle=orthogonalEdgeStyle;rounded=0;orthogonalLoop=1;jettySize=auto;html=1;exitX=0.5;exitY=1;exitDx=0;exitDy=0;entryX=0.5;entryY=0;entryDx=0;entryDy=0;" edge="1" parent="1" source="4VplBbc3Qp97Eee8QdOj-10" target="4VplBbc3Qp97Eee8QdOj-26">
          <mxGeometry relative="1" as="geometry">
            <Array as="points">
              <mxPoint x="560" y="420" />
              <mxPoint x="640" y="420" />
              <mxPoint x="640" y="480" />
              <mxPoint x="800" y="480" />
            </Array>
          </mxGeometry>
        </mxCell>
        <mxCell id="4VplBbc3Qp97Eee8QdOj-10" value="Xử lý timeout khi không tìm thấy vân tay" style="shape=process;whiteSpace=wrap;html=1;backgroundOutline=1;" parent="1" vertex="1">
          <mxGeometry x="500" y="190" width="120" height="60" as="geometry" />
        </mxCell>
        <mxCell id="4VplBbc3Qp97Eee8QdOj-12" value="F" style="text;html=1;align=center;verticalAlign=middle;resizable=0;points=[];autosize=1;strokeColor=none;fillColor=none;" parent="1" vertex="1">
          <mxGeometry x="460" y="190" width="30" height="30" as="geometry" />
        </mxCell>
        <mxCell id="4VplBbc3Qp97Eee8QdOj-17" style="edgeStyle=orthogonalEdgeStyle;rounded=0;orthogonalLoop=1;jettySize=auto;html=1;exitX=0.5;exitY=1;exitDx=0;exitDy=0;entryX=0.5;entryY=0;entryDx=0;entryDy=0;" parent="1" source="4VplBbc3Qp97Eee8QdOj-14" target="4VplBbc3Qp97Eee8QdOj-16" edge="1">
          <mxGeometry relative="1" as="geometry" />
        </mxCell>
        <mxCell id="4VplBbc3Qp97Eee8QdOj-14" value="Lấy mẫu vân tay" style="rounded=0;whiteSpace=wrap;html=1;" parent="1" vertex="1">
          <mxGeometry x="340" y="290" width="120" height="60" as="geometry" />
        </mxCell>
        <mxCell id="4VplBbc3Qp97Eee8QdOj-19" style="edgeStyle=orthogonalEdgeStyle;rounded=0;orthogonalLoop=1;jettySize=auto;html=1;exitX=0.5;exitY=1;exitDx=0;exitDy=0;entryX=0.5;entryY=0;entryDx=0;entryDy=0;" parent="1" source="4VplBbc3Qp97Eee8QdOj-16" target="4VplBbc3Qp97Eee8QdOj-18" edge="1">
          <mxGeometry relative="1" as="geometry" />
        </mxCell>
        <mxCell id="nUrgJPAWz0GhqdLrq_Ft-1" style="edgeStyle=orthogonalEdgeStyle;rounded=0;orthogonalLoop=1;jettySize=auto;html=1;exitX=1;exitY=0.5;exitDx=0;exitDy=0;" edge="1" parent="1" source="4VplBbc3Qp97Eee8QdOj-16">
          <mxGeometry relative="1" as="geometry">
            <mxPoint x="800" y="490" as="targetPoint" />
            <Array as="points">
              <mxPoint x="640" y="420" />
              <mxPoint x="640" y="480" />
              <mxPoint x="800" y="480" />
            </Array>
          </mxGeometry>
        </mxCell>
        <mxCell id="4VplBbc3Qp97Eee8QdOj-16" value="Vân tay hợp lệ" style="rhombus;whiteSpace=wrap;html=1;" parent="1" vertex="1">
          <mxGeometry x="330" y="380" width="140" height="80" as="geometry" />
        </mxCell>
        <mxCell id="4VplBbc3Qp97Eee8QdOj-29" style="edgeStyle=orthogonalEdgeStyle;rounded=0;orthogonalLoop=1;jettySize=auto;html=1;exitX=1;exitY=0.5;exitDx=0;exitDy=0;entryX=0;entryY=0.5;entryDx=0;entryDy=0;" parent="1" source="4VplBbc3Qp97Eee8QdOj-18" target="4VplBbc3Qp97Eee8QdOj-28" edge="1">
          <mxGeometry relative="1" as="geometry" />
        </mxCell>
        <mxCell id="nUrgJPAWz0GhqdLrq_Ft-8" style="edgeStyle=orthogonalEdgeStyle;rounded=0;orthogonalLoop=1;jettySize=auto;html=1;exitX=0.5;exitY=1;exitDx=0;exitDy=0;entryX=0.5;entryY=0;entryDx=0;entryDy=0;" edge="1" parent="1" source="4VplBbc3Qp97Eee8QdOj-18" target="nUrgJPAWz0GhqdLrq_Ft-7">
          <mxGeometry relative="1" as="geometry" />
        </mxCell>
        <mxCell id="4VplBbc3Qp97Eee8QdOj-18" value="Lấy mẫu vân tay lần 2" style="rounded=0;whiteSpace=wrap;html=1;" parent="1" vertex="1">
          <mxGeometry x="340" y="490" width="120" height="60" as="geometry" />
        </mxCell>
        <mxCell id="4VplBbc3Qp97Eee8QdOj-23" style="edgeStyle=orthogonalEdgeStyle;rounded=0;orthogonalLoop=1;jettySize=auto;html=1;exitX=0.5;exitY=1;exitDx=0;exitDy=0;entryX=0.5;entryY=0;entryDx=0;entryDy=0;" parent="1" source="4VplBbc3Qp97Eee8QdOj-20" target="4VplBbc3Qp97Eee8QdOj-22" edge="1">
          <mxGeometry relative="1" as="geometry" />
        </mxCell>
        <mxCell id="4VplBbc3Qp97Eee8QdOj-33" style="edgeStyle=orthogonalEdgeStyle;rounded=0;orthogonalLoop=1;jettySize=auto;html=1;exitX=1;exitY=0.5;exitDx=0;exitDy=0;entryX=0.5;entryY=0;entryDx=0;entryDy=0;" parent="1" source="4VplBbc3Qp97Eee8QdOj-20" target="4VplBbc3Qp97Eee8QdOj-30" edge="1">
          <mxGeometry relative="1" as="geometry">
            <Array as="points">
              <mxPoint x="890" y="150" />
              <mxPoint x="890" y="390" />
              <mxPoint x="800" y="390" />
            </Array>
          </mxGeometry>
        </mxCell>
        <mxCell id="4VplBbc3Qp97Eee8QdOj-20" value="Cả 2 vân tay &lt;br&gt;trùng khớp" style="rhombus;whiteSpace=wrap;html=1;" parent="1" vertex="1">
          <mxGeometry x="730" y="110" width="140" height="80" as="geometry" />
        </mxCell>
        <mxCell id="4VplBbc3Qp97Eee8QdOj-25" style="edgeStyle=orthogonalEdgeStyle;rounded=0;orthogonalLoop=1;jettySize=auto;html=1;exitX=0.5;exitY=1;exitDx=0;exitDy=0;entryX=0.5;entryY=0;entryDx=0;entryDy=0;" parent="1" source="4VplBbc3Qp97Eee8QdOj-22" target="4VplBbc3Qp97Eee8QdOj-24" edge="1">
          <mxGeometry relative="1" as="geometry" />
        </mxCell>
        <mxCell id="4VplBbc3Qp97Eee8QdOj-22" value="Khởi tạo ID và tên" style="rounded=0;whiteSpace=wrap;html=1;" parent="1" vertex="1">
          <mxGeometry x="740" y="220" width="120" height="60" as="geometry" />
        </mxCell>
        <mxCell id="4VplBbc3Qp97Eee8QdOj-32" style="edgeStyle=orthogonalEdgeStyle;rounded=0;orthogonalLoop=1;jettySize=auto;html=1;exitX=0.5;exitY=1;exitDx=0;exitDy=0;entryX=0.5;entryY=0;entryDx=0;entryDy=0;" parent="1" source="4VplBbc3Qp97Eee8QdOj-24" target="4VplBbc3Qp97Eee8QdOj-30" edge="1">
          <mxGeometry relative="1" as="geometry" />
        </mxCell>
        <mxCell id="4VplBbc3Qp97Eee8QdOj-24" value="Lưu vân tay&lt;br&gt;vào bộ nhớ" style="rounded=0;whiteSpace=wrap;html=1;" parent="1" vertex="1">
          <mxGeometry x="740" y="310" width="120" height="60" as="geometry" />
        </mxCell>
        <mxCell id="4VplBbc3Qp97Eee8QdOj-26" value="Kết thúc" style="ellipse;whiteSpace=wrap;html=1;" parent="1" vertex="1">
          <mxGeometry x="740" y="490" width="120" height="80" as="geometry" />
        </mxCell>
        <mxCell id="nUrgJPAWz0GhqdLrq_Ft-12" style="edgeStyle=orthogonalEdgeStyle;rounded=0;orthogonalLoop=1;jettySize=auto;html=1;exitX=0.5;exitY=0;exitDx=0;exitDy=0;" edge="1" parent="1" source="4VplBbc3Qp97Eee8QdOj-28">
          <mxGeometry relative="1" as="geometry">
            <mxPoint x="560" y="420" as="targetPoint" />
          </mxGeometry>
        </mxCell>
        <mxCell id="4VplBbc3Qp97Eee8QdOj-28" value="Xử lý timeout khi không tìm thấy vân tay" style="shape=process;whiteSpace=wrap;html=1;backgroundOutline=1;" parent="1" vertex="1">
          <mxGeometry x="500" y="490" width="120" height="60" as="geometry" />
        </mxCell>
        <mxCell id="4VplBbc3Qp97Eee8QdOj-34" style="edgeStyle=orthogonalEdgeStyle;rounded=0;orthogonalLoop=1;jettySize=auto;html=1;exitX=0.5;exitY=1;exitDx=0;exitDy=0;entryX=0.5;entryY=0;entryDx=0;entryDy=0;" parent="1" source="4VplBbc3Qp97Eee8QdOj-30" target="4VplBbc3Qp97Eee8QdOj-26" edge="1">
          <mxGeometry relative="1" as="geometry" />
        </mxCell>
        <mxCell id="4VplBbc3Qp97Eee8QdOj-30" value="Thông báo lên màn hình" style="rounded=0;whiteSpace=wrap;html=1;" parent="1" vertex="1">
          <mxGeometry x="740" y="400" width="120" height="60" as="geometry" />
        </mxCell>
        <mxCell id="nUrgJPAWz0GhqdLrq_Ft-2" value="F" style="text;html=1;align=center;verticalAlign=middle;resizable=0;points=[];autosize=1;strokeColor=none;fillColor=none;" vertex="1" parent="1">
          <mxGeometry x="465" y="388" width="30" height="30" as="geometry" />
        </mxCell>
        <mxCell id="nUrgJPAWz0GhqdLrq_Ft-3" value="T" style="text;html=1;align=center;verticalAlign=middle;resizable=0;points=[];autosize=1;strokeColor=none;fillColor=none;" vertex="1" parent="1">
          <mxGeometry x="399" y="460" width="30" height="30" as="geometry" />
        </mxCell>
        <mxCell id="nUrgJPAWz0GhqdLrq_Ft-4" value="T" style="text;html=1;align=center;verticalAlign=middle;resizable=0;points=[];autosize=1;strokeColor=none;fillColor=none;" vertex="1" parent="1">
          <mxGeometry x="402" y="258" width="30" height="30" as="geometry" />
        </mxCell>
        <mxCell id="nUrgJPAWz0GhqdLrq_Ft-5" value="F" style="text;html=1;align=center;verticalAlign=middle;resizable=0;points=[];autosize=1;strokeColor=none;fillColor=none;" vertex="1" parent="1">
          <mxGeometry x="865" y="118" width="30" height="30" as="geometry" />
        </mxCell>
        <mxCell id="nUrgJPAWz0GhqdLrq_Ft-6" value="T" style="text;html=1;align=center;verticalAlign=middle;resizable=0;points=[];autosize=1;strokeColor=none;fillColor=none;" vertex="1" parent="1">
          <mxGeometry x="802" y="190" width="30" height="30" as="geometry" />
        </mxCell>
        <mxCell id="nUrgJPAWz0GhqdLrq_Ft-7" value="6" style="ellipse;whiteSpace=wrap;html=1;aspect=fixed;" vertex="1" parent="1">
          <mxGeometry x="380" y="585" width="40" height="40" as="geometry" />
        </mxCell>
        <mxCell id="nUrgJPAWz0GhqdLrq_Ft-10" style="edgeStyle=orthogonalEdgeStyle;rounded=0;orthogonalLoop=1;jettySize=auto;html=1;exitX=0.5;exitY=1;exitDx=0;exitDy=0;entryX=0.5;entryY=0;entryDx=0;entryDy=0;" edge="1" parent="1" source="nUrgJPAWz0GhqdLrq_Ft-9" target="4VplBbc3Qp97Eee8QdOj-20">
          <mxGeometry relative="1" as="geometry" />
        </mxCell>
        <mxCell id="nUrgJPAWz0GhqdLrq_Ft-9" value="6" style="ellipse;whiteSpace=wrap;html=1;aspect=fixed;" vertex="1" parent="1">
          <mxGeometry x="780" y="50" width="40" height="40" as="geometry" />
        </mxCell>
      </root>
    </mxGraphModel>
  </diagram>
</mxfile>
